<?xml version="1.0" encoding="utf-8"?>
<!-- Generator: Adobe Illustrator 21.1.0, SVG Export Plug-In . SVG Version: 6.00 Build 0)  -->
<svg version="1.1" id="Layer_1" xmlns="http://www.w3.org/2000/svg" xmlns:xlink="http://www.w3.org/1999/xlink" x="0px" y="0px"
	 viewBox="0 0 174.9 39.4" style="enable-background:new 0 0 174.9 39.4;" xml:space="preserve">
<style type="text/css">
	.st0{fill:#FFFFFF;}
</style>
<g>
	<path class="st0" d="M7.6,16.8c2.3,0,4.5-0.8,4.5-3.4c0-2.7-2.2-3.5-4.5-3.5H5.9v6.9H7.6z M9.5,5.2c5.1,0,8.9,2.6,8.9,8
		c0,5.3-3.8,8.3-8.9,8.3H5.9v9.6H0V5.2H9.5z"/>
	<path class="st0" d="M28.2,26.9c2.2,0,3.7-1.6,3.7-3.8s-1.7-3.8-3.7-3.8c-2.1,0-3.8,1.6-3.8,3.8C24.4,25.3,25.9,26.9,28.2,26.9
		 M26.5,14.5c2.2,0,4,0.7,5.3,2V15h5.6v16.1h-5.5v-1.8h-0.1c-1.2,1.3-3.1,2.3-5.3,2.3c-4.7,0-8-3.8-8-8.5
		C18.5,18.4,21.8,14.5,26.5,14.5"/>
	<path class="st0" d="M41.2,15h5.6v2.3h0.1c0,0,1.8-2.8,4.9-2.8c2.1,0,3.5,1,3.5,1L53,20.2c0,0-1-0.9-2.9-0.9
		c-2.9,0-3.3,2.9-3.3,3.3v8.5h-5.6V15z"/>
	<path class="st0" d="M61.4,23.1c0,2.2,1.7,4,3.8,4c1.7,0,2.7-0.8,2.7-0.8l1.9,3.9c0,0-1.8,1.4-5.4,1.4c-4.7,0-8.9-3.8-8.9-8.5
		s4.2-8.6,8.9-8.6c3.6,0,5.4,1.5,5.4,1.5l-1.9,3.8c0,0-1-0.8-2.7-0.8C63.1,19.1,61.4,20.9,61.4,23.1"/>
	<path class="st0" d="M83,20.8c-0.3-1.7-1.4-2.6-3-2.6c-1.9,0-3,1.1-3.1,2.6H83z M76.7,23.8c0,2.5,2.1,3.3,3.5,3.3
		c1.8,0,2.6-0.3,3.9-1.8l4,2c-1.8,3.1-4.8,4.2-8.4,4.2c-4.9,0-8.9-3.8-8.9-8.5s4-8.6,8.9-8.6s8.6,2.9,8.6,8.6c0,0.2,0,0.6,0,0.8
		H76.7z"/>
	<rect x="91" y="4.1" class="st0" width="5.6" height="27"/>
	<polygon class="st0" points="172.2,36.7 106.4,36.7 106.4,2.7 162.5,2.7 162.5,0 103.6,0 103.6,39.4 174.9,39.4 174.9,12.4 
		172.2,12.4 	"/>
	<polygon class="st0" points="172.2,2.7 172.2,7.7 174.9,7.7 174.9,0 167.3,0 167.3,2.7 	"/>
	<path class="st0" d="M114.4,19.3h4.1c4,0,6.2-1.3,6.2-5.1s-2.4-5-6.2-5h-4.1V19.3z M112.7,7.7h5.8c4.8,0,7.9,1.7,7.9,6.4
		c0,4.8-3,6.6-7.9,6.6h-4.1V30h-1.7C112.7,30,112.7,7.7,112.7,7.7z"/>
	<path class="st0" d="M141.7,21.7c0-4.5-2.3-7.2-6.1-7.2c-3.7,0-6.1,2.7-6.1,7.2s2.3,7.2,6.1,7.2C139.4,28.9,141.7,26.2,141.7,21.7
		 M127.9,21.7c0-5.2,3.1-8.5,7.7-8.5s7.7,3.2,7.7,8.5c0,5.2-3.1,8.4-7.7,8.4C131,30.1,127.9,26.9,127.9,21.7"/>
	<path class="st0" d="M145.3,28.5v-1.3h0.6c0.8,0.7,2.3,1.6,4.6,1.6c3,0,4.5-1.3,4.5-3.6c0-1.9-1.1-2.7-4.4-3.3
		c-3.2-0.5-5.2-1.6-5.2-4.4c0-2.9,2.3-4.4,5.6-4.4c2.4,0,3.9,0.6,4.8,1.2v1.3h-0.6c-0.9-0.7-2-1.3-4.1-1.3c-2.7,0-4.1,1-4.1,3
		c0,1.9,1.1,2.6,4.3,3.2c3.5,0.5,5.4,1.6,5.4,4.5c0,3-1.9,4.9-6,4.9C147.8,30.1,146.3,29.2,145.3,28.5"/>
	<path class="st0" d="M158.5,13.4h2.2V8.8h1.6v4.6h4.4v1.2h-4.4v11.6c0,2,0.9,2.6,2.9,2.6h1.9v1.1c-0.5,0.1-1.5,0.2-2.4,0.2
		c-2.5,0-3.9-1.1-3.9-3.7V14.6h-2.2v-1.2H158.5z"/>
</g>
</svg>
