<?xml version="1.0" encoding="utf-8"?>
<!-- Generator: Adobe Illustrator 22.0.1, SVG Export Plug-In . SVG Version: 6.00 Build 0)  -->
<svg version="1.1" id="Layer_1" xmlns="http://www.w3.org/2000/svg" xmlns:xlink="http://www.w3.org/1999/xlink" x="0px" y="0px"
	 viewBox="0 0 256 105" style="enable-background:new 0 0 256 105;" xml:space="preserve">
<style type="text/css">
	.st0{fill:#FFFFFF;}
	.st1{fill:url(#SVGID_1_);}
	.st2{fill:#EE4749;}
	.st3{fill:#005691;}
	.st4{fill:#393E46;}
	.st5{fill:#FBB03B;}
</style>
<g>
	<g>
		<path class="st0" d="M12.6,24.7c3.4,0,6.6-1.1,6.6-5c0-3.9-3.2-5-6.6-5h-2.4v10H12.6z M15.3,7.9c7.4,0,12.9,3.8,12.9,11.6
			c0,7.8-5.5,12.1-12.9,12.1h-5.2v14H1.6V7.9H15.3z"/>
		<path class="st0" d="M42.6,39.4c3.2,0,5.4-2.3,5.4-5.5c0-3.2-2.4-5.5-5.4-5.5c-3.1,0-5.5,2.3-5.5,5.5
			C37.1,37.1,39.3,39.4,42.6,39.4 M40.2,21.4c3.2,0,5.8,1.1,7.7,2.9v-2.2h8.1v23.5h-8v-2.7h-0.1c-1.7,1.9-4.5,3.3-7.7,3.3
			c-6.9,0-11.7-5.5-11.7-12.4C28.5,27,33.3,21.4,40.2,21.4"/>
		<path class="st0" d="M61.4,22.1h8.1v3.4h0.1c0,0,2.6-4.1,7.2-4.1c3,0,5.1,1.5,5.1,1.5l-3.4,6.9c0,0-1.5-1.3-4.2-1.3
			c-4.2,0-4.8,4.2-4.8,4.8v12.4h-8.1V22.1z"/>
		<path class="st0" d="M90.9,33.8c0,3.2,2.5,5.8,5.6,5.8c2.4,0,3.9-1.1,3.9-1.1l2.7,5.6c0,0-2.7,2.1-7.9,2.1c-6.8,0-13-5.5-13-12.4
			c0-6.9,6.2-12.5,13-12.5c5.2,0,7.9,2.2,7.9,2.2l-2.7,5.5c0,0-1.5-1.1-3.9-1.1C93.4,28.1,90.9,30.6,90.9,33.8"/>
		<path class="st0" d="M122.3,30.5c-0.4-2.5-2.1-3.8-4.4-3.8c-2.8,0-4.3,1.6-4.5,3.8H122.3z M113.1,35c0,3.6,3,4.8,5.1,4.8
			c2.6,0,3.8-0.5,5.7-2.6l5.9,2.9c-2.7,4.4-7,6.1-12.2,6.1c-7.1,0-12.9-5.6-12.9-12.4c0-6.9,5.8-12.4,12.9-12.4
			c7.1,0,12.6,4.2,12.6,12.4c0,0.3,0,0.8,0,1.1H113.1z"/>
		<rect x="133.9" y="6.3" class="st0" width="8.1" height="39.3"/>
		<polygon class="st0" points="252.1,53.7 156.3,53.7 156.3,4.2 238,4.2 238,0.3 152.3,0.3 152.3,57.6 256,57.6 256,18.3 
			252.1,18.3 		"/>
		<polygon class="st0" points="252.1,4.2 252.1,11.5 256,11.5 256,0.3 244.9,0.3 244.9,4.2 		"/>
		<path class="st0" d="M167.9,28.4h5.9c5.8,0,9-1.9,9-7.5c0-5.5-3.5-7.3-9-7.3h-5.9V28.4z M165.5,11.5h8.4c6.9,0,11.5,2.4,11.5,9.2
			c0,7-4.3,9.6-11.5,9.6h-5.9v13.5h-2.4V11.5z"/>
		<path class="st0" d="M207.7,31.8c0-6.6-3.4-10.5-8.9-10.5c-5.5,0-8.8,3.9-8.8,10.5c0,6.6,3.4,10.4,8.8,10.4
			C204.3,42.3,207.7,38.4,207.7,31.8 M187.6,31.8c0-7.6,4.5-12.3,11.2-12.3c6.7,0,11.2,4.7,11.2,12.3c0,7.6-4.5,12.2-11.2,12.2
			C192.2,44.1,187.6,39.5,187.6,31.8"/>
		<path class="st0" d="M213,41.8v-1.9h0.9c1.2,1.1,3.3,2.4,6.8,2.4c4.4,0,6.6-1.9,6.6-5.2c0-2.8-1.6-4-6.5-4.8
			c-4.6-0.7-7.5-2.4-7.5-6.4c0-4.2,3.3-6.4,8.1-6.4c3.5,0,5.6,0.9,7,1.8v1.9h-0.9c-1.3-1.1-2.9-1.9-6-1.9c-3.9,0-6,1.5-6,4.4
			c0,2.8,1.6,3.8,6.3,4.6c5,0.8,7.8,2.3,7.8,6.6c0,4.4-2.7,7.2-8.7,7.2C216.6,44.1,214.4,42.8,213,41.8"/>
		<path class="st0" d="M232.1,19.8h3.2v-6.7h2.3v6.7h6.4v1.8h-6.4v16.8c0,2.9,1.3,3.8,4.2,3.8h2.8v1.6c-0.7,0.1-2.1,0.3-3.6,0.3
			c-3.7,0-5.7-1.6-5.7-5.4V21.6h-3.2V19.8z"/>
	</g>
	<g>
		<linearGradient id="SVGID_1_" gradientUnits="userSpaceOnUse" x1="0" y1="83.7104" x2="256" y2="83.7104">
			<stop  offset="0" style="stop-color:#FFFFFF;stop-opacity:0"/>
			<stop  offset="0.3318" style="stop-color:#FFFFFF"/>
		</linearGradient>
		<rect y="62.7" class="st1" width="256" height="42"/>
		<g>
			<path class="st2" d="M221.6,93.4l1.8-7.3l1.4,7.3h3.5l4.2-7.2l-0.7,7.3h4l1.9-15.3h-4.3l-5.8,8.6l-2.8-8.6h-3.3l-4,15.2
				C217.4,93.4,221.6,93.4,221.6,93.4z"/>
			<g>
				<path class="st3" d="M219.9,78.2h-4.1l2.5-7.8c0,0-3.9-0.2-6.3,7.8c-1.3,0-1.3,0-1.3,0s1.8-7.3,6.5-9c1-3.7,0.9-3.6,0.9-3.6
					s-5.5-0.1-8.9,3.5c-0.5,0.7-2.8,2.6-4.1,9c-0.1,0-2.6,0-2.6,0l-2.3,7.2h3l-2.9,10.3c0,0,4.6-0.1,6.6-4.1
					c1.1-2.2,1.9-6.2,1.9-6.2h1.2c0,0-0.6,3.7-1.6,5.8c-0.6,1.3-2,4.6-7.7,6c-0.4,2.2-0.9,4.5-0.9,4.5s6.4,0.2,10-5.8
					c0.6-1.1,1.6-2.8,2.4-5.8c0.7-3,1.2-4.6,1.2-4.6h4.3L219.9,78.2z"/>
				<path class="st3" d="M237.3,71.8c-4.3,0-7.9,3.1-8.6,7.3l1.5,0.1c0.6-3.4,3.5-5.9,7.1-5.9c4,0,7.2,3.2,7.2,7.2
					c0,3.6-2.6,6.5-6,7.1l-0.2,1.5c4.3-0.5,7.6-4.2,7.6-8.6C246,75.7,242.1,71.8,237.3,71.8z"/>
			</g>
			<g>
				<path class="st4" d="M216.8,97.9h0.9l-0.3,1.3c-0.2,0.1-0.3,0.1-0.4,0.1c-0.1,0-0.3,0-0.4,0c-0.3,0-0.5-0.1-0.7-0.2
					c-0.2-0.2-0.2-0.4-0.2-0.7c0-0.3,0.1-0.6,0.2-0.8c0.1-0.2,0.3-0.4,0.5-0.6c0.2-0.1,0.5-0.2,0.8-0.2c0.2,0,0.5,0.1,0.7,0.2
					l-0.2,0.4c-0.1,0-0.2-0.1-0.2-0.1c-0.1,0-0.2,0-0.3,0c-0.2,0-0.3,0-0.5,0.1c-0.1,0.1-0.2,0.2-0.3,0.4c-0.1,0.2-0.1,0.4-0.1,0.6
					c0,0.2,0,0.3,0.1,0.4c0.1,0.1,0.2,0.1,0.4,0.1c0.1,0,0.2,0,0.3,0l0.1-0.5h-0.4L216.8,97.9z"/>
				<path class="st4" d="M218,99.2l0.5-2.5h0.5l-0.4,2h0.9l-0.1,0.4H218z"/>
				<path class="st4" d="M222.1,97.7c0,0.3-0.1,0.6-0.2,0.9c-0.1,0.3-0.3,0.4-0.5,0.6c-0.2,0.1-0.4,0.2-0.7,0.2
					c-0.3,0-0.5-0.1-0.7-0.2c-0.2-0.2-0.2-0.4-0.2-0.7c0-0.3,0.1-0.6,0.2-0.8c0.1-0.2,0.3-0.4,0.5-0.6c0.2-0.1,0.4-0.2,0.7-0.2
					c0.3,0,0.5,0.1,0.7,0.2C222,97.1,222.1,97.4,222.1,97.7z M221.1,97.2c-0.1,0-0.3,0.1-0.4,0.2c-0.1,0.1-0.2,0.2-0.3,0.4
					c-0.1,0.2-0.1,0.4-0.1,0.6c0,0.2,0,0.3,0.1,0.4c0.1,0.1,0.2,0.1,0.3,0.1s0.3,0,0.4-0.1c0.1-0.1,0.2-0.2,0.3-0.4
					c0.1-0.2,0.1-0.4,0.1-0.6c0-0.2,0-0.3-0.1-0.4C221.4,97.2,221.3,97.2,221.1,97.2z"/>
				<path class="st4" d="M223.5,96.8c0.3,0,0.5,0,0.6,0.1c0.1,0.1,0.2,0.2,0.2,0.4c0,0.2,0,0.3-0.1,0.4c-0.1,0.1-0.2,0.2-0.4,0.2v0
					c0.1,0,0.2,0.1,0.3,0.2s0.1,0.2,0.1,0.3c0,0.3-0.1,0.5-0.3,0.6c-0.2,0.1-0.4,0.2-0.7,0.2h-0.9l0.5-2.5H223.5z M222.9,98.8h0.3
					c0.1,0,0.2,0,0.3-0.1c0.1-0.1,0.1-0.2,0.1-0.3c0-0.2-0.1-0.3-0.3-0.3H223L222.9,98.8z M223.1,97.8h0.3c0.1,0,0.2,0,0.3-0.1
					c0.1-0.1,0.1-0.1,0.1-0.2c0-0.2-0.1-0.2-0.3-0.2h-0.3L223.1,97.8z"/>
				<path class="st4" d="M225.7,98.7h-0.8l-0.3,0.6h-0.5l1.3-2.5h0.6l0.2,2.5h-0.5L225.7,98.7z M225.7,98.2l0-0.6c0-0.1,0-0.3,0-0.4
					v-0.1c0,0.1-0.1,0.3-0.2,0.4l-0.3,0.6H225.7z"/>
				<path class="st4" d="M226.6,99.2l0.5-2.5h0.5l-0.4,2h0.9l-0.1,0.4H226.6z"/>
				<path class="st4" d="M229.2,99.2l0.5-2.5h0.5l-0.4,2h0.9l-0.1,0.4H229.2z"/>
				<path class="st4" d="M233.3,97.7c0,0.3-0.1,0.6-0.2,0.9c-0.1,0.3-0.3,0.4-0.5,0.6c-0.2,0.1-0.4,0.2-0.7,0.2
					c-0.3,0-0.5-0.1-0.7-0.2c-0.2-0.2-0.2-0.4-0.2-0.7c0-0.3,0.1-0.6,0.2-0.8c0.1-0.2,0.3-0.4,0.5-0.6c0.2-0.1,0.4-0.2,0.7-0.2
					c0.3,0,0.5,0.1,0.7,0.2S233.3,97.4,233.3,97.7z M232.4,97.2c-0.1,0-0.3,0.1-0.4,0.2c-0.1,0.1-0.2,0.2-0.3,0.4
					c-0.1,0.2-0.1,0.4-0.1,0.6c0,0.2,0,0.3,0.1,0.4c0.1,0.1,0.2,0.1,0.3,0.1c0.1,0,0.3,0,0.4-0.1c0.1-0.1,0.2-0.2,0.3-0.4
					c0.1-0.2,0.1-0.4,0.1-0.6c0-0.2,0-0.3-0.1-0.4C232.6,97.2,232.5,97.2,232.4,97.2z"/>
				<path class="st4" d="M234.7,97.9h0.9l-0.3,1.3c-0.2,0.1-0.3,0.1-0.4,0.1c-0.1,0-0.3,0-0.4,0c-0.3,0-0.5-0.1-0.7-0.2
					c-0.2-0.2-0.2-0.4-0.2-0.7c0-0.3,0.1-0.6,0.2-0.8c0.1-0.2,0.3-0.4,0.5-0.6c0.2-0.1,0.5-0.2,0.8-0.2c0.2,0,0.5,0.1,0.7,0.2
					l-0.2,0.4c-0.1,0-0.2-0.1-0.2-0.1c-0.1,0-0.2,0-0.3,0c-0.2,0-0.3,0-0.5,0.1c-0.1,0.1-0.2,0.2-0.3,0.4c-0.1,0.2-0.1,0.4-0.1,0.6
					c0,0.2,0,0.3,0.1,0.4c0.1,0.1,0.2,0.1,0.4,0.1c0.1,0,0.2,0,0.3,0l0.1-0.5h-0.4L234.7,97.9z"/>
				<path class="st4" d="M235.9,99.2l0.5-2.5h0.5l-0.5,2.5H235.9z"/>
				<path class="st4" d="M238.5,98.5c0,0.2-0.1,0.4-0.2,0.6c-0.2,0.1-0.4,0.2-0.7,0.2c-0.2,0-0.4-0.1-0.6-0.2v-0.5
					c0.2,0.1,0.4,0.2,0.6,0.2c0.1,0,0.2,0,0.3-0.1c0.1,0,0.1-0.1,0.1-0.2c0,0,0-0.1,0-0.1c0,0,0-0.1-0.1-0.1c0,0-0.1-0.1-0.2-0.2
					c-0.2-0.1-0.3-0.2-0.3-0.3c-0.1-0.1-0.1-0.2-0.1-0.4c0-0.1,0-0.3,0.1-0.4c0.1-0.1,0.2-0.2,0.3-0.3c0.1-0.1,0.3-0.1,0.4-0.1
					c0.2,0,0.5,0.1,0.7,0.2l-0.2,0.4c-0.2-0.1-0.3-0.1-0.5-0.1c-0.1,0-0.2,0-0.2,0.1c-0.1,0.1-0.1,0.1-0.1,0.2c0,0.1,0,0.1,0.1,0.2
					c0,0.1,0.1,0.1,0.2,0.2c0.1,0.1,0.2,0.2,0.3,0.3C238.5,98.2,238.5,98.4,238.5,98.5z"/>
				<path class="st4" d="M239.7,99.2h-0.5l0.4-2H239l0.1-0.4h1.7l-0.1,0.4h-0.6L239.7,99.2z"/>
				<path class="st4" d="M240.7,99.2l0.5-2.5h0.5l-0.5,2.5H240.7z"/>
				<path class="st4" d="M243.2,97.2c-0.1,0-0.3,0-0.4,0.1c-0.1,0.1-0.2,0.2-0.3,0.4c-0.1,0.2-0.1,0.4-0.1,0.6c0,0.2,0,0.3,0.1,0.4
					c0.1,0.1,0.2,0.1,0.4,0.1c0.2,0,0.4,0,0.6-0.1v0.4c-0.2,0.1-0.4,0.1-0.7,0.1c-0.3,0-0.5-0.1-0.7-0.3c-0.2-0.2-0.2-0.4-0.2-0.7
					c0-0.3,0.1-0.6,0.2-0.8c0.1-0.2,0.3-0.4,0.5-0.6c0.2-0.1,0.4-0.2,0.7-0.2c0.1,0,0.3,0,0.4,0s0.2,0.1,0.3,0.1l-0.2,0.4
					c-0.1-0.1-0.2-0.1-0.3-0.1C243.3,97.2,243.3,97.2,243.2,97.2z"/>
				<path class="st4" d="M245.4,98.5c0,0.2-0.1,0.4-0.2,0.6c-0.2,0.1-0.4,0.2-0.7,0.2c-0.2,0-0.4-0.1-0.6-0.2v-0.5
					c0.2,0.1,0.4,0.2,0.6,0.2c0.1,0,0.2,0,0.3-0.1c0.1,0,0.1-0.1,0.1-0.2c0,0,0-0.1,0-0.1c0,0,0-0.1-0.1-0.1c0,0-0.1-0.1-0.2-0.2
					c-0.2-0.1-0.3-0.2-0.3-0.3c-0.1-0.1-0.1-0.2-0.1-0.4c0-0.1,0-0.3,0.1-0.4c0.1-0.1,0.2-0.2,0.3-0.3c0.1-0.1,0.3-0.1,0.4-0.1
					c0.2,0,0.5,0.1,0.7,0.2l-0.2,0.4c-0.2-0.1-0.3-0.1-0.5-0.1c-0.1,0-0.2,0-0.2,0.1c-0.1,0.1-0.1,0.1-0.1,0.2c0,0.1,0,0.1,0.1,0.2
					c0,0.1,0.1,0.1,0.2,0.2c0.1,0.1,0.2,0.2,0.3,0.3C245.3,98.2,245.4,98.4,245.4,98.5z"/>
			</g>
		</g>
		<g>
			<path class="st5" d="M100.6,82.3c0,1.2-0.4,2.1-1.2,2.7c-0.8,0.6-1.9,1-3.3,1h-1.2v4.3H93V78.9h3.3c1.4,0,2.5,0.3,3.2,0.9
				C100.2,80.3,100.6,81.2,100.6,82.3z M94.9,84.5h1c1,0,1.7-0.2,2.1-0.5c0.4-0.3,0.7-0.9,0.7-1.6c0-0.7-0.2-1.1-0.6-1.5
				c-0.4-0.3-1-0.5-1.9-0.5h-1.3V84.5z"/>
			<path class="st5" d="M113,84.6c0,1.9-0.5,3.3-1.4,4.3s-2.2,1.5-3.9,1.5c-1.7,0-3-0.5-4-1.5c-0.9-1-1.4-2.5-1.4-4.4
				c0-1.9,0.5-3.3,1.4-4.3c0.9-1,2.3-1.5,4-1.5c1.7,0,3,0.5,3.9,1.5C112.5,81.3,113,82.7,113,84.6z M104.3,84.6
				c0,1.4,0.3,2.5,0.9,3.2c0.6,0.7,1.4,1.1,2.5,1.1c1.1,0,1.9-0.4,2.5-1.1c0.6-0.7,0.8-1.8,0.8-3.2c0-1.4-0.3-2.5-0.8-3.2
				c-0.6-0.7-1.4-1.1-2.5-1.1c-1.1,0-2,0.4-2.5,1.1C104.6,82.1,104.3,83.2,104.3,84.6z"/>
			<path class="st5" d="M126,90.3h-2l-1.9-6.8c-0.1-0.3-0.2-0.7-0.3-1.3c-0.1-0.6-0.2-0.9-0.2-1.2c-0.1,0.3-0.1,0.8-0.3,1.3
				s-0.2,0.9-0.3,1.2l-1.9,6.8h-2l-1.5-5.7l-1.5-5.7h1.9l1.6,6.7c0.3,1.1,0.4,2,0.5,2.8c0.1-0.4,0.1-0.9,0.3-1.5
				c0.1-0.5,0.2-1,0.3-1.3l1.9-6.7h1.9l1.9,6.7c0.2,0.6,0.4,1.5,0.6,2.8c0.1-0.7,0.3-1.7,0.6-2.8l1.6-6.6h1.9L126,90.3z"/>
			<path class="st5" d="M137,90.3h-6.5V78.9h6.5v1.6h-4.6v3.1h4.3v1.6h-4.3v3.6h4.6V90.3z"/>
			<path class="st5" d="M141.4,85.7v4.6h-1.9V78.9h3.2c1.5,0,2.6,0.3,3.3,0.8c0.7,0.6,1.1,1.4,1.1,2.5c0,1.4-0.7,2.4-2.2,3l3.2,5.1
				H146l-2.7-4.6H141.4z M141.4,84.2h1.3c0.9,0,1.5-0.2,1.9-0.5c0.4-0.3,0.6-0.8,0.6-1.4c0-0.6-0.2-1.1-0.6-1.4s-1.1-0.4-1.9-0.4
				h-1.2V84.2z"/>
			<path class="st5" d="M156.2,90.3h-6.5V78.9h6.5v1.6h-4.6v3.1h4.3v1.6h-4.3v3.6h4.6V90.3z"/>
			<path class="st5" d="M168,84.5c0,1.9-0.5,3.3-1.6,4.3c-1,1-2.6,1.5-4.5,1.5h-3.2V78.9h3.5c1.8,0,3.2,0.5,4.2,1.5
				C167.4,81.3,168,82.7,168,84.5z M166,84.6c0-2.7-1.3-4.1-3.8-4.1h-1.6v8.3h1.3C164.6,88.7,166,87.3,166,84.6z"/>
			<path class="st5" d="M174.6,78.9h3.4c1.6,0,2.7,0.2,3.4,0.7c0.7,0.5,1.1,1.2,1.1,2.2c0,0.7-0.2,1.2-0.5,1.7
				c-0.3,0.4-0.8,0.7-1.5,0.8v0.1c0.8,0.2,1.4,0.4,1.8,0.9c0.4,0.4,0.6,1,0.6,1.8c0,1-0.4,1.8-1.1,2.4c-0.7,0.6-1.7,0.9-3,0.9h-4.1
				V78.9z M176.4,83.6h1.8c0.8,0,1.4-0.1,1.7-0.4c0.4-0.2,0.5-0.7,0.5-1.3c0-0.5-0.2-0.9-0.6-1.2c-0.4-0.2-1-0.4-1.8-0.4h-1.6V83.6z
				 M176.4,85.1v3.6h2c0.8,0,1.4-0.1,1.8-0.4c0.4-0.3,0.6-0.8,0.6-1.4c0-0.6-0.2-1-0.6-1.3c-0.4-0.3-1-0.4-1.9-0.4H176.4z"/>
			<path class="st5" d="M188.4,84.1l2.7-5.2h2l-3.8,7v4.4h-1.9v-4.4l-3.8-7.1h2L188.4,84.1z"/>
		</g>
	</g>
</g>
</svg>
